<?xml version="1.0" encoding="UTF-8"?>
<svg id="Calque_1" xmlns="http://www.w3.org/2000/svg" version="1.1" viewBox="0 0 110.02 174.46">
  <!-- Generator: Adobe Illustrator 30.2.1, SVG Export Plug-In . SVG Version: 2.1.1 Build 1)  -->
  <defs>
    <style>
      .st0 {
        fill: #1a1613;
      }
    </style>
  </defs>
  <path class="st0" d="M26.27,38.95h16.18v47.25h-10.41v-37.27h-5.78v-9.98Z"/>
  <path class="st0" d="M48.68,64.61c.9-1.71,2.01-3.12,3.31-4.24,1.31-1.12,2.51-2.01,3.6-2.67-1.05-1.09-1.94-2.22-2.67-3.39-.74-1.16-1.1-2.81-1.1-4.95s.61-4.04,1.82-5.7c1.21-1.66,2.84-2.96,4.88-3.88,2.04-.93,4.3-1.39,6.77-1.39s4.74.46,6.81,1.39,3.73,2.17,4.99,3.74c1.26,1.57,1.89,3.35,1.89,5.34,0,2.38-.39,4.16-1.18,5.34-.78,1.19-1.75,2.35-2.89,3.49,1.14.71,2.34,1.64,3.6,2.78,1.26,1.14,2.34,2.55,3.24,4.24.9,1.69,1.35,3.74,1.35,6.16,0,2.76-.78,5.34-2.35,7.77-1.57,2.42-3.69,4.38-6.38,5.88-2.68,1.5-5.76,2.24-9.23,2.24s-6.55-.75-9.23-2.24c-2.68-1.5-4.79-3.46-6.31-5.88-1.52-2.42-2.28-5.01-2.28-7.77,0-2.47.45-4.56,1.35-6.27ZM58.94,74.26c.67,1.16,1.54,2.09,2.64,2.78,1.09.69,2.3,1.03,3.63,1.03s2.64-.34,3.78-1.03c1.14-.69,2.05-1.61,2.74-2.78.69-1.16,1.03-2.43,1.03-3.81s-.32-2.62-.96-3.74c-.64-1.12-1.5-2.03-2.57-2.74-1.07-.71-2.27-1.09-3.6-1.14-1.33-.05-2.58.26-3.74.93-1.16.67-2.11,1.58-2.85,2.74-.74,1.16-1.1,2.48-1.1,3.96,0,1.38.33,2.65,1,3.81ZM63.04,53.13c.78.71,1.6,1.07,2.46,1.07s1.66-.36,2.42-1.07c.76-.71,1.14-1.54,1.14-2.49s-.37-1.79-1.1-2.53c-.74-.74-1.56-1.1-2.46-1.1s-1.74.37-2.49,1.1c-.76.74-1.14,1.58-1.14,2.53s.39,1.78,1.18,2.49Z"/>
  <path class="st0" d="M22.42,117.31c.9-1.71,2.01-3.12,3.31-4.24,1.31-1.12,2.51-2.01,3.6-2.67-1.05-1.09-1.94-2.22-2.67-3.39-.74-1.16-1.1-2.81-1.1-4.95s.61-4.04,1.82-5.7c1.21-1.66,2.84-2.96,4.88-3.88,2.04-.93,4.3-1.39,6.77-1.39s4.74.46,6.81,1.39,3.73,2.17,4.99,3.74c1.26,1.57,1.89,3.35,1.89,5.34,0,2.38-.39,4.16-1.18,5.34-.78,1.19-1.75,2.35-2.89,3.49,1.14.71,2.34,1.64,3.6,2.78,1.26,1.14,2.34,2.55,3.24,4.24.9,1.69,1.35,3.74,1.35,6.16,0,2.76-.78,5.34-2.35,7.77-1.57,2.42-3.69,4.38-6.38,5.88-2.68,1.5-5.76,2.24-9.23,2.24s-6.55-.75-9.23-2.24c-2.68-1.5-4.79-3.46-6.31-5.88-1.52-2.42-2.28-5.01-2.28-7.77,0-2.47.45-4.56,1.35-6.27ZM32.68,126.97c.67,1.16,1.54,2.09,2.64,2.78,1.09.69,2.3,1.03,3.63,1.03s2.64-.34,3.78-1.03c1.14-.69,2.05-1.61,2.74-2.78.69-1.16,1.03-2.43,1.03-3.81s-.32-2.62-.96-3.74c-.64-1.12-1.5-2.03-2.57-2.74-1.07-.71-2.27-1.09-3.6-1.14-1.33-.05-2.58.26-3.74.93-1.16.67-2.11,1.58-2.85,2.74-.74,1.16-1.1,2.48-1.1,3.96,0,1.38.33,2.65,1,3.81ZM36.78,105.84c.78.71,1.6,1.07,2.46,1.07s1.66-.36,2.42-1.07c.76-.71,1.14-1.54,1.14-2.49s-.37-1.79-1.1-2.53c-.74-.74-1.56-1.1-2.46-1.1s-1.74.37-2.49,1.1c-.76.74-1.14,1.58-1.14,2.53s.39,1.78,1.18,2.49Z"/>
  <path class="st0" d="M72.18,139.48c-2.8,0-5.54-.52-8.2-1.57-2.66-1.04-4.73-2.3-6.2-3.78l5.34-8.27c.86,1.05,2.08,1.91,3.67,2.6,1.59.69,3.12,1.03,4.6,1.03,1.09,0,2.11-.24,3.06-.71.95-.47,1.71-1.19,2.28-2.14.57-.95.85-2.11.85-3.49,0-1.52-.3-2.85-.89-3.99-.59-1.14-1.45-2.03-2.57-2.67-1.12-.64-2.43-.96-3.95-.96s-2.88.2-4.2.61c-1.33.4-2.9,1.08-4.7,2.03h-.07v-26.51h23.59v9.98h-14.68v7.63l-1.21-2.14c.67-.09,1.31-.17,1.92-.21.62-.05,1.23-.07,1.85-.07,3.32,0,6.14.74,8.44,2.21,2.3,1.47,4.07,3.42,5.31,5.84,1.23,2.42,1.85,5.06,1.85,7.91,0,3.14-.71,5.96-2.14,8.48-1.43,2.52-3.36,4.51-5.81,5.99-2.45,1.47-5.17,2.21-8.16,2.21Z"/>
</svg>