<?xml version="1.0" encoding="UTF-8"?>
<svg id="Calque_1" xmlns="http://www.w3.org/2000/svg" version="1.1" viewBox="0 0 110.02 174.46">
  <!-- Generator: Adobe Illustrator 30.2.1, SVG Export Plug-In . SVG Version: 2.1.1 Build 1)  -->
  <defs>
    <style>
      .st0, .st1 {
        fill: #1a1613;
      }

      .st1, .st2 {
        stroke: #1d1d1b;
        stroke-miterlimit: 10;
      }

      .st2 {
        fill: none;
      }
    </style>
  </defs>
  <rect class="st2" x="13.11" y="13.09" width="84.43" height="150.36"/>
  <g>
    <path class="st0" d="M26.27,20.95h16.18v47.25h-10.41V30.93h-5.78v-9.98Z"/>
    <path class="st0" d="M48.68,46.61c.9-1.71,2.01-3.12,3.31-4.24,1.31-1.12,2.51-2.01,3.6-2.67-1.05-1.09-1.94-2.22-2.67-3.39-.74-1.16-1.1-2.81-1.1-4.95s.61-4.04,1.82-5.7c1.21-1.66,2.84-2.96,4.88-3.88,2.04-.93,4.3-1.39,6.77-1.39s4.74.46,6.81,1.39,3.73,2.17,4.99,3.74c1.26,1.57,1.89,3.35,1.89,5.34,0,2.38-.39,4.16-1.18,5.34-.78,1.19-1.75,2.35-2.89,3.49,1.14.71,2.34,1.64,3.6,2.78,1.26,1.14,2.34,2.55,3.24,4.24.9,1.69,1.35,3.74,1.35,6.16,0,2.76-.78,5.34-2.35,7.77-1.57,2.42-3.69,4.38-6.38,5.88-2.68,1.5-5.76,2.24-9.23,2.24s-6.55-.75-9.23-2.24c-2.68-1.5-4.79-3.46-6.31-5.88-1.52-2.42-2.28-5.01-2.28-7.77,0-2.47.45-4.56,1.35-6.27ZM58.94,56.26c.67,1.16,1.54,2.09,2.64,2.78,1.09.69,2.3,1.03,3.63,1.03s2.64-.34,3.78-1.03c1.14-.69,2.05-1.61,2.74-2.78.69-1.16,1.03-2.43,1.03-3.81s-.32-2.62-.96-3.74c-.64-1.12-1.5-2.03-2.57-2.74-1.07-.71-2.27-1.09-3.6-1.14-1.33-.05-2.58.26-3.74.93-1.16.67-2.11,1.58-2.85,2.74-.74,1.16-1.1,2.48-1.1,3.96,0,1.38.33,2.65,1,3.81ZM63.04,35.13c.78.71,1.6,1.07,2.46,1.07s1.66-.36,2.42-1.07c.76-.71,1.14-1.54,1.14-2.49s-.37-1.79-1.1-2.53c-.74-.74-1.56-1.1-2.46-1.1s-1.74.37-2.49,1.1c-.76.74-1.14,1.58-1.14,2.53s.39,1.78,1.18,2.49Z"/>
    <path class="st0" d="M22.42,99.31c.9-1.71,2.01-3.12,3.31-4.24,1.31-1.12,2.51-2.01,3.6-2.67-1.05-1.09-1.94-2.22-2.67-3.39-.74-1.16-1.1-2.81-1.1-4.95s.61-4.04,1.82-5.7c1.21-1.66,2.84-2.96,4.88-3.88,2.04-.93,4.3-1.39,6.77-1.39s4.74.46,6.81,1.39,3.73,2.17,4.99,3.74c1.26,1.57,1.89,3.35,1.89,5.34,0,2.38-.39,4.16-1.18,5.34-.78,1.19-1.75,2.35-2.89,3.49,1.14.71,2.34,1.64,3.6,2.78,1.26,1.14,2.34,2.55,3.24,4.24.9,1.69,1.35,3.74,1.35,6.16,0,2.76-.78,5.34-2.35,7.77-1.57,2.42-3.69,4.38-6.38,5.88-2.68,1.5-5.76,2.24-9.23,2.24s-6.55-.75-9.23-2.24c-2.68-1.5-4.79-3.46-6.31-5.88-1.52-2.42-2.28-5.01-2.28-7.77,0-2.47.45-4.56,1.35-6.27ZM32.68,108.97c.67,1.16,1.54,2.09,2.64,2.78,1.09.69,2.3,1.03,3.63,1.03s2.64-.34,3.78-1.03c1.14-.69,2.05-1.61,2.74-2.78.69-1.16,1.03-2.43,1.03-3.81s-.32-2.62-.96-3.74c-.64-1.12-1.5-2.03-2.57-2.74-1.07-.71-2.27-1.09-3.6-1.14-1.33-.05-2.58.26-3.74.93-1.16.67-2.11,1.58-2.85,2.74-.74,1.16-1.1,2.48-1.1,3.96,0,1.38.33,2.65,1,3.81ZM36.78,87.84c.78.71,1.6,1.07,2.46,1.07s1.66-.36,2.42-1.07c.76-.71,1.14-1.54,1.14-2.49s-.37-1.79-1.1-2.53c-.74-.74-1.56-1.1-2.46-1.1s-1.74.37-2.49,1.1c-.76.74-1.14,1.58-1.14,2.53s.39,1.78,1.18,2.49Z"/>
    <path class="st0" d="M72.18,121.48c-2.8,0-5.54-.52-8.2-1.57-2.66-1.04-4.73-2.3-6.2-3.78l5.34-8.27c.86,1.05,2.08,1.91,3.67,2.6,1.59.69,3.12,1.03,4.6,1.03,1.09,0,2.11-.24,3.06-.71.95-.47,1.71-1.19,2.28-2.14.57-.95.85-2.11.85-3.49,0-1.52-.3-2.85-.89-3.99-.59-1.14-1.45-2.03-2.57-2.67-1.12-.64-2.43-.96-3.95-.96s-2.88.2-4.2.61c-1.33.4-2.9,1.08-4.7,2.03h-.07v-26.51h23.59v9.98h-14.68v7.63l-1.21-2.14c.67-.09,1.31-.17,1.92-.21.62-.05,1.23-.07,1.85-.07,3.32,0,6.14.74,8.44,2.21,2.3,1.47,4.07,3.42,5.31,5.84,1.23,2.42,1.85,5.06,1.85,7.91,0,3.14-.71,5.96-2.14,8.48-1.43,2.52-3.36,4.51-5.81,5.99-2.45,1.47-5.17,2.21-8.16,2.21Z"/>
  </g>
  <line class="st1" x1="23.2" y1="129.36" x2="85.15" y2="129.36"/>
  <g>
    <path class="st0" d="M25.9,144.33v-5.81h0l2.8,3.98-.17-.02,2.79-3.95h0v5.81h-.38v-4.9l.03.19-2.37,3.34h-.02l-2.38-3.34.06-.18v4.89h-.38Z"/>
    <path class="st0" d="M32.66,144.33l2.4-5.93h.03l2.4,5.93h-.44l-2.09-5.3.27-.15-2.18,5.46h-.39ZM33.82,142.08h2.52l.11.37h-2.73l.1-.37Z"/>
    <path class="st0" d="M43.55,144.47l-4.48-5.05.1-.08v4.99s-.38,0-.38,0v-5.8h.02l4.48,5.09-.1.03v-5s.37,0,.37,0v5.82h-.02Z"/>
    <path class="st0" d="M45.74,142.41c0,.33.07.62.2.86.14.24.32.43.56.56.23.13.5.2.8.2s.57-.07.81-.2c.24-.13.42-.32.56-.56.14-.24.2-.53.2-.86v-3.76h.38v3.78c0,.41-.09.76-.26,1.06-.17.29-.41.52-.7.67-.3.15-.63.23-1,.23s-.7-.08-1-.23c-.3-.16-.53-.38-.7-.67-.17-.29-.26-.65-.26-1.06v-3.78h.39v3.76Z"/>
    <path class="st0" d="M51.03,138.65h3.18v.38h-2.79v2.34h2.47v.37h-2.47v2.59h-.39v-5.68Z"/>
    <path class="st0" d="M54.66,144.33l2.4-5.93h.03l2.4,5.93h-.44l-2.09-5.3.27-.15-2.18,5.46h-.39ZM55.82,142.08h2.52l.11.37h-2.73l.1-.37Z"/>
    <path class="st0" d="M64.66,143.95c-.12.07-.26.15-.42.22s-.34.12-.53.16c-.19.04-.4.06-.62.06-.43,0-.82-.08-1.18-.23-.35-.15-.65-.36-.9-.62s-.44-.57-.58-.91-.2-.71-.2-1.1c0-.42.07-.8.22-1.16s.35-.67.61-.94.56-.47.91-.62c.35-.15.72-.22,1.13-.22.3,0,.58.04.84.12s.5.18.71.31l-.17.36c-.19-.12-.4-.22-.63-.3-.24-.08-.48-.12-.74-.12-.34,0-.65.07-.95.2s-.56.31-.79.54c-.23.23-.4.5-.53.81-.13.31-.19.64-.19,1s.06.66.17.97c.12.3.28.57.5.8.22.23.48.41.78.54.3.13.64.2,1.02.2.28,0,.53-.04.76-.12.23-.08.44-.17.62-.29l.18.34Z"/>
    <path class="st0" d="M65.65,138.65h3.72v.38h-1.67v5.3h-.39v-5.3h-1.66v-.38Z"/>
    <path class="st0" d="M71.08,142.41c0,.33.07.62.2.86s.32.43.56.56c.24.13.5.2.8.2s.57-.07.81-.2c.24-.13.42-.32.56-.56.14-.24.21-.53.21-.86v-3.76h.38v3.78c0,.41-.09.76-.26,1.06-.17.29-.41.52-.7.67-.3.15-.63.23-1,.23s-.7-.08-1-.23c-.3-.16-.53-.38-.7-.67-.17-.29-.26-.65-.26-1.06v-3.78h.39v3.76Z"/>
    <path class="st0" d="M77.67,138.65c.21,0,.43.03.64.09.21.06.4.16.58.29.17.13.31.3.42.5.11.2.16.45.16.73,0,.21-.03.42-.1.62s-.17.38-.31.54c-.14.16-.33.29-.56.38s-.51.14-.85.14h-.88v2.38h-.39v-5.68h1.3ZM77.62,141.57c.28,0,.52-.04.7-.12s.33-.18.44-.31c.11-.13.18-.27.23-.42s.07-.3.07-.44c0-.17-.03-.33-.09-.48-.06-.15-.15-.28-.27-.4-.12-.11-.26-.21-.42-.27s-.35-.1-.55-.1h-.96v2.54h.86ZM78.44,141.75l1.58,2.58h-.46l-1.58-2.58h.46Z"/>
    <path class="st0" d="M81.44,138.65h3.5v.38h-3.11v2.26h2.8v.38h-2.8v2.3h3.22v.38h-3.62v-5.68Z"/>
    <path class="st0" d="M22.5,153.93l2.4-5.93h.03l2.4,5.93h-.44l-2.09-5.3.27-.15-2.18,5.46h-.39ZM23.66,151.68h2.52l.11.37h-2.73l.1-.37Z"/>
    <path class="st0" d="M28.64,148.25h.39v5.3h3.11v.38h-3.5v-5.68Z"/>
    <path class="st0" d="M33.46,148.25h3.18v.38h-2.79v2.34h2.47v.37h-2.47v2.59h-.39v-5.68Z"/>
    <path class="st0" d="M37.5,151.1c0-.4.07-.77.22-1.12.15-.35.36-.66.62-.93s.57-.48.92-.63.72-.23,1.12-.23.78.08,1.13.23.66.36.93.63.48.58.63.93c.15.35.23.72.23,1.12s-.08.78-.23,1.12c-.15.35-.36.66-.63.92-.27.27-.58.48-.93.62-.35.15-.73.22-1.13.22s-.77-.07-1.12-.22c-.35-.14-.66-.35-.92-.61s-.47-.57-.62-.92c-.15-.35-.22-.74-.22-1.15ZM37.9,151.11c0,.35.06.67.19.98.13.3.31.57.54.8s.49.41.8.54.62.2.96.2.68-.07.98-.2.57-.31.8-.54c.23-.23.41-.5.54-.8.13-.3.2-.63.2-.98s-.07-.67-.2-.98c-.13-.31-.31-.58-.54-.81-.23-.23-.5-.41-.8-.55-.3-.13-.63-.2-.98-.2s-.68.07-.98.2c-.3.14-.57.32-.8.56-.23.23-.4.5-.53.81-.12.31-.19.63-.19.97Z"/>
    <path class="st0" d="M46.05,148.25c.21,0,.43.03.64.09s.4.16.58.29.31.3.42.5c.11.2.16.45.16.73,0,.21-.03.42-.1.62-.06.2-.17.38-.31.54-.14.16-.33.29-.56.38-.23.1-.51.14-.85.14h-.88v2.38h-.39v-5.68h1.3ZM46,151.17c.28,0,.52-.04.7-.12s.33-.18.44-.31c.11-.13.18-.27.23-.42.05-.15.07-.3.07-.44,0-.17-.03-.33-.09-.48-.06-.15-.15-.28-.27-.4s-.26-.21-.42-.27c-.17-.07-.35-.1-.55-.1h-.96v2.54h.86ZM46.82,151.35l1.58,2.58h-.46l-1.58-2.58h.46Z"/>
    <path class="st0" d="M49.32,148.25h3.72v.38h-1.67v5.3h-.39v-5.3h-1.66v-.38Z"/>
    <path class="st0" d="M54.34,148.25l2.1,5.32-.22-.03,2.05-5.29h.45l-2.42,5.94-2.42-5.94h.46Z"/>
    <path class="st0" d="M60.01,148.25h.39v5.68h-.39v-5.68Z"/>
    <path class="st0" d="M62.21,148.25h.39v5.3h3.11v.38h-3.5v-5.68Z"/>
    <path class="st0" d="M67.03,148.25h.39v5.3h3.11v.38h-3.5v-5.68Z"/>
    <path class="st0" d="M71.36,153.93l2.4-5.93h.03l2.4,5.93h-.44l-2.09-5.3.27-.15-2.18,5.46h-.39ZM72.52,151.68h2.52l.11.37h-2.73l.1-.37Z"/>
    <path class="st0" d="M77.51,148.25h.39v5.68h-.39v-5.68Z"/>
    <path class="st0" d="M82.55,148.89c-.17-.08-.37-.15-.61-.22s-.48-.1-.72-.1c-.37,0-.67.09-.9.28-.22.19-.34.42-.34.7,0,.21.06.39.19.53s.3.26.5.36c.21.1.43.19.66.28.19.07.37.15.56.23.18.08.35.19.5.31.15.12.27.28.36.46.09.18.13.41.13.67,0,.32-.08.59-.22.84-.15.24-.36.43-.62.56-.27.13-.58.2-.93.2-.28,0-.54-.04-.77-.1s-.43-.15-.61-.24c-.17-.09-.31-.17-.41-.24l.18-.32c.12.09.26.17.43.26.17.09.35.16.55.22.2.06.39.09.59.09.23,0,.45-.05.67-.14.21-.09.39-.23.54-.41.14-.18.21-.42.21-.7s-.07-.49-.2-.66c-.13-.17-.3-.31-.51-.41-.21-.11-.43-.2-.66-.29-.18-.07-.36-.14-.54-.22-.18-.08-.35-.17-.5-.28-.15-.11-.27-.24-.36-.4-.09-.15-.13-.34-.13-.56,0-.27.07-.51.21-.71.14-.2.33-.36.56-.48.24-.11.51-.17.81-.18.27,0,.54.04.81.1.27.07.51.16.71.26l-.15.3Z"/>
    <path class="st0" d="M84.35,148.25h3.5v.38h-3.11v2.26h2.8v.38h-2.8v2.3h3.22v.38h-3.62v-5.68Z"/>
  </g>
</svg>